mtllib C:/Users/Emily Rae/Desktop/Arrow/rotateArrow.mtl
s 1
o 
g 
usemtl Layer_Layer0
v -1.19663 -0.965047 0
v -2.91902 -2.35411 0
v -2.99947 -0.491969 0
vn 0 0 -1
f 1//1 2//1 3//1 
v -2.33522 -1.88329 0
f 2//1 1//1 4//1 
v -1.78043 -1.43587 0
f 4//1 1//1 5//1 
v -1.76822 -2.42351 0
f 5//1 6//1 4//1 
v -1.45193 -1.78379 0
f 6//1 5//1 7//1 
v -1.08071 -2.79858 0
f 6//1 7//1 8//1 
v -0.940778 -2.09879 0
f 8//1 7//1 9//1 
v -0.319564 -2.98293 0
f 8//1 9//1 10//1 
v -0.365514 -2.27077 0
f 10//1 9//1 11//1 
v -0.243644 -2.27427 0
f 10//1 11//1 12//1 
v 0.463364 -2.964 0
f 10//1 12//1 13//1 
v 0.234659 -2.288 0
f 13//1 12//1 14//1 
v 0.818841 -2.1493 0
f 13//1 14//1 15//1 
v 1.21472 -2.74308 0
f 13//1 15//1 16//1 
v 1.34722 -1.86413 0
f 16//1 15//1 17//1 
v 1.88329 -2.33522 0
f 16//1 17//1 18//1 
v 1.78379 -1.45193 0
f 18//1 17//1 19//1 
v 2.09879 -0.940778 0
f 18//1 19//1 20//1 
v 2.42351 -1.76822 0
f 18//1 20//1 21//1 
v 2.13372 -0.823966 0
f 21//1 20//1 22//1 
v 2.79858 -1.08071 0
f 21//1 22//1 23//1 
v -1.76822 -2.42351 0.5
v -1.78043 -1.43587 0.5
v -2.33522 -1.88329 0.5
vn 0 0 1
f 24//2 25//2 26//2 
v -1.45193 -1.78379 0.5
f 25//2 24//2 27//2 
v -1.08071 -2.79858 0.5
f 27//2 24//2 28//2 
v -0.940778 -2.09879 0.5
f 27//2 28//2 29//2 
v -0.319564 -2.98293 0.5
f 29//2 28//2 30//2 
v -0.365514 -2.27077 0.5
f 29//2 30//2 31//2 
v -0.243644 -2.27427 0.5
f 31//2 30//2 32//2 
v 0.463364 -2.964 0.5
f 32//2 30//2 33//2 
v 0.234659 -2.288 0.5
f 32//2 33//2 34//2 
v 0.818841 -2.1493 0.5
f 34//2 33//2 35//2 
v 1.21472 -2.74308 0.5
f 35//2 33//2 36//2 
v 1.34722 -1.86413 0.5
f 35//2 36//2 37//2 
v 1.88329 -2.33522 0.5
f 37//2 36//2 38//2 
v 1.78379 -1.45193 0.5
f 37//2 38//2 39//2 
v 2.09879 -0.940778 0.5
f 39//2 38//2 40//2 
v 2.42351 -1.76822 0.5
f 40//2 38//2 41//2 
v 2.13372 -0.823966 0.5
f 40//2 41//2 42//2 
v 2.79858 -1.08071 0.5
f 42//2 41//2 43//2 
v -2.91902 -2.35411 0.5
v -1.19663 -0.965047 0.5
v -2.99947 -0.491969 0.5
f 44//2 45//2 46//2 
f 45//2 44//2 26//2 
f 45//2 26//2 25//2 
vn 0.158919 0.987292 0
vn 0.0286921 0.999588 0
f 31//3 12//4 11//3 
f 12//4 31//3 32//4 
vn -0.102026 0.994782 0
f 32//4 14//5 12//4 
f 14//5 32//4 34//5 
vn -0.356018 0.934479 0
f 34//5 15//6 14//5 
f 15//6 34//5 35//6 
vn -0.585748 0.810493 0
f 35//6 17//7 15//6 
f 17//7 35//6 37//7 
vn -0.77556 0.631274 0
f 37//7 19//8 17//7 
f 19//8 37//7 39//8 
vn -0.912519 0.409034 0
f 40//9 19//8 39//8 
f 19//8 40//9 20//9 
vn -0.958102 0.286427 0
f 42//10 20//9 40//9 
f 20//9 42//10 22//10 
vn 0.360238 0.93286 0
f 42//11 23//11 22//11 
f 23//11 42//11 43//11 
vn 0.877859 -0.478919 0
vn 0.807837 -0.589405 0
f 23//12 41//13 21//13 
f 41//13 23//12 43//12 
vn 0.627762 -0.778406 0
f 21//13 38//14 18//14 
f 38//14 21//13 41//13 
vn 0.404905 -0.914359 0
f 38//14 16//15 18//14 
f 16//15 38//14 36//15 
vn 0.154455 -0.988 0
f 36//15 13//16 16//15 
f 13//16 36//15 33//16 
vn -0.106521 -0.99431 0
f 33//16 10//17 13//16 
f 10//17 33//16 30//17 
vn -0.360238 -0.93286 0
f 30//17 8//18 10//17 
f 8//18 30//17 28//18 
vn -0.589405 -0.807837 0
f 28//18 6//19 8//18 
f 6//19 28//18 24//19 
vn -0.689807 -0.723993 0
f 24//19 4//20 6//19 
f 4//20 24//19 26//20 
f 26//14 2//14 4//14 
f 2//14 26//14 44//14 
vn -0.999068 -0.0431611 0
f 46//21 2//21 44//21 
f 2//21 46//21 3//21 
vn 0.253815 0.967253 0
f 46//22 1//22 3//22 
f 1//22 46//22 45//22 
f 45//14 5//14 1//14 
f 5//14 45//14 25//14 
vn 0.727104 0.686527 0
vn 0.631274 0.77556 0
f 5//23 27//24 7//24 
f 27//24 5//23 25//23 
vn 0.409034 0.912519 0
f 27//24 9//25 7//24 
f 9//25 27//24 29//25 
f 29//25 11//3 9//25 
f 11//3 29//25 31//3 
