# wavefront obj file written by the visualization toolkit

mtllib D:/HoloQuickNav/HoloQuickNav_SimultatedStudyData/PT010/Path.mtl

v 14.6427 -10.8031 -31.3005
v 14.6427 -10.8031 -33.1309
v 14.0648 -11.5128 -32.2157
v 85.6115 -68.5966 -31.3005
v 15.2206 -10.0934 -32.2157
v 85.6115 -68.5966 -33.1309
v 86.1895 -67.887 -32.2157
v 85.0336 -69.3063 -32.2157
v 14.3537 -11.1579 -31.7581
v 14.6427 -10.8031 -32.2157
v 14.3537 -11.1579 -32.6733
v 50.1271 -39.6999 -31.3005
v 49.8381 -40.0547 -31.7581
v 14.9317 -10.4483 -31.7581
v 14.9317 -10.4483 -32.6733
v 50.4161 -39.345 -31.7581
v 50.4161 -39.345 -32.6733
v 50.1271 -39.6999 -33.1309
v 50.705 -38.9902 -32.2157
v 85.9005 -68.2418 -31.7581
v 85.9005 -68.2418 -32.6733
v 49.8381 -40.0547 -32.6733
v 49.5492 -40.4096 -32.2157
v 85.3226 -68.9515 -32.6733
v 85.3226 -68.9515 -31.7581
v 85.6115 -68.5966 -32.2157
vn -0.633121 0.515582 0.57735
vn -0.633121 0.515582 -0.577349
vn -0.853814 -0.520579 -9.93412e-007
vn 0.258469 -0.210487 0.942809
vn 0.336873 0.94155 -9.93411e-007
vn 0.258469 -0.210488 -0.942809
vn 0.997692 -0.0678976 -6.08326e-007
vn 0.268547 -0.963267 -6.08348e-007
vn -0.864027 0.0588015 0.5
vn -0.775412 0.631456 0
vn -0.864027 0.0588012 -0.499999
vn 0 -2.80979e-008 1
vn -0.446508 -0.548299 0.707106
vn -0.23257 0.834213 0.5
vn -0.23257 0.834213 -0.5
vn 0.446508 0.548299 0.707106
vn 0.446508 0.548299 -0.707106
vn -1.4049e-008 -2.8098e-008 -1
vn 0.631457 0.775411 -1.05367e-006
vn 0.864027 -0.0588041 0.499999
vn 0.864027 -0.0588044 -0.499999
vn -0.446508 -0.548299 -0.707106
vn -0.631457 -0.775411 -1.02557e-006
vn 0.232567 -0.834214 -0.5
vn 0.232567 -0.834214 0.5
vn 0.775409 -0.631459 0

g grp1
usemtl mtl1
f 1//1 10//10 9//9 
f 10//10 2//2 11//11 
f 11//11 3//3 9//9 
f 10//10 11//11 9//9 
f 1//1 9//9 12//12 
f 9//9 3//3 13//13 
f 13//13 4//4 12//12 
f 9//9 13//13 12//12 
f 1//1 14//14 10//10 
f 14//14 5//5 15//15 
f 15//15 2//2 10//10 
f 14//14 15//15 10//10 
f 1//1 12//12 14//14 
f 12//12 4//4 16//16 
f 16//16 5//5 14//14 
f 12//12 16//16 14//14 
f 5//5 17//17 15//15 
f 17//17 6//6 18//18 
f 18//18 2//2 15//15 
f 17//17 18//18 15//15 
f 5//5 16//16 19//19 
f 16//16 4//4 20//20 
f 20//20 7//7 19//19 
f 16//16 20//20 19//19 
f 5//5 19//19 17//17 
f 19//19 7//7 21//21 
f 21//21 6//6 17//17 
f 19//19 21//21 17//17 
f 2//2 18//18 11//11 
f 18//18 6//6 22//22 
f 22//22 3//3 11//11 
f 18//18 22//22 11//11 
f 3//3 22//22 23//23 
f 22//22 6//6 24//24 
f 24//24 8//8 23//23 
f 22//22 24//24 23//23 
f 3//3 23//23 13//13 
f 23//23 8//8 25//25 
f 25//25 4//4 13//13 
f 23//23 25//25 13//13 
f 4//4 25//25 20//20 
f 25//25 8//8 26//26 
f 26//26 7//7 20//20 
f 25//25 26//26 20//20 
f 7//7 26//26 21//21 
f 26//26 8//8 24//24 
f 24//24 6//6 21//21 
f 26//26 24//24 21//21 
