# wavefront obj file written by the visualization toolkit

mtllib D:/HoloQuickNav/HoloQuickNav_SimultatedStudyData/PT003/Path.mtl

v 21.1082 100.02 55.7647
v 20.6335 100.186 56.3294
v 45.7226 146.987 62.6338
v 21.5829 99.6992 56.2582
v 21.1082 99.8654 56.8229
v 46.1973 146.666 63.1273
v 45.7226 146.833 63.692
v 45.2479 147.154 63.1985
v 33.4154 123.504 59.1993
v 20.8709 100.103 56.0471
v 33.1781 123.587 59.4816
v 21.3455 99.8597 56.0115
v 33.6527 123.343 59.446
v 21.1082 99.9428 56.2938
v 20.8709 100.026 56.5761
v 21.3455 99.7823 56.5405
v 33.8901 123.183 59.6927
v 45.9599 146.827 62.8806
v 33.6527 123.266 59.9751
v 45.9599 146.75 63.4096
v 33.4154 123.349 60.2574
v 33.1781 123.509 60.0107
v 32.9407 123.67 59.764
v 45.4853 146.993 63.4452
v 45.4853 147.07 62.9162
v 45.7226 146.91 63.1629
vn -0.375879 -0.633651 -0.676167
vn -0.95674 0.0776451 -0.280391
vn 0.15344 0.429239 -0.890062
vn 0.683521 -0.722247 -0.105635
vn -0.516146 -0.580557 0.62972
vn 0.888404 0.45423 0.0664307
vn 0.444199 0.101788 0.890127
vn -0.320838 0.873573 0.365969
vn -4.6221e-006 0.144716 -0.989473
vn -0.769386 -0.32101 -0.552266
vn -0.627728 0.424416 -0.652555
vn 0.118352 -0.77651 -0.61889
vn 0.627723 -0.219757 -0.746774
vn -0.460356 -0.87839 -0.128468
vn -0.769386 -0.465723 0.437204
vn 0.118353 -0.921226 0.370588
vn 0.88774 -0.4555 -0.0666228
vn 0.769378 0.465733 -0.437208
vn 0.627728 -0.424416 0.652556
vn 0.769381 0.321017 0.552269
vn -8.99132e-007 -0.144713 0.989474
vn -0.627729 0.219761 0.746767
vn -0.88774 0.4555 0.0666168
vn -0.118364 0.776513 0.618884
vn -0.118365 0.921226 -0.370584
vn 0.460334 0.878401 0.128468

g grp1
usemtl mtl1
f 1//1 10//10 9//9 
f 10//10 2//2 11//11 
f 11//11 3//3 9//9 
f 10//10 11//11 9//9 
f 1//1 9//9 12//12 
f 9//9 3//3 13//13 
f 13//13 4//4 12//12 
f 9//9 13//13 12//12 
f 1//1 14//14 10//10 
f 14//14 5//5 15//15 
f 15//15 2//2 10//10 
f 14//14 15//15 10//10 
f 1//1 12//12 14//14 
f 12//12 4//4 16//16 
f 16//16 5//5 14//14 
f 12//12 16//16 14//14 
f 4//4 13//13 17//17 
f 13//13 3//3 18//18 
f 18//18 6//6 17//17 
f 13//13 18//18 17//17 
f 4//4 17//17 19//19 
f 17//17 6//6 20//20 
f 20//20 7//7 19//19 
f 17//17 20//20 19//19 
f 4//4 19//19 16//16 
f 19//19 7//7 21//21 
f 21//21 5//5 16//16 
f 19//19 21//21 16//16 
f 5//5 22//22 15//15 
f 22//22 8//8 23//23 
f 23//23 2//2 15//15 
f 22//22 23//23 15//15 
f 5//5 21//21 22//22 
f 21//21 7//7 24//24 
f 24//24 8//8 22//22 
f 21//21 24//24 22//22 
f 2//2 23//23 11//11 
f 23//23 8//8 25//25 
f 25//25 3//3 11//11 
f 23//23 25//25 11//11 
f 3//3 25//25 18//18 
f 25//25 8//8 26//26 
f 26//26 6//6 18//18 
f 25//25 26//26 18//18 
f 6//6 26//26 20//20 
f 26//26 8//8 24//24 
f 24//24 7//7 20//20 
f 26//26 24//24 20//20 
