# wavefront obj file written by the visualization toolkit

mtllib D:/HoloQuickNav/HoloQuickNav_SimultatedStudyData/PT005/Path.mtl

v -52.0189 37.7561 4.10613
v -52.2468 37.1638 4.6824
v -108.184 60.518 5.28504
v -51.791 38.2856 4.7405
v -107.956 61.0475 5.91941
v -108.184 60.4552 6.49568
v -52.0189 37.6933 5.31677
v -108.412 59.9257 5.86131
v -80.1014 49.137 4.69558
v -52.1329 37.4599 4.39426
v -80.2154 48.8409 4.98372
v -51.9049 38.0208 4.42331
v -79.9875 49.4018 5.01277
v -52.0189 37.7247 4.71145
v -79.8735 49.6665 5.32996
v -108.07 60.7827 5.60222
v -79.9875 49.3704 5.61809
v -108.07 60.7514 6.20755
v -51.9049 37.9895 5.02864
v -52.1329 37.4286 4.99959
v -80.1014 49.0743 5.90623
v -80.2154 48.8095 5.58904
v -80.3294 48.5448 5.27185
v -108.298 60.2218 5.57317
v -108.298 60.1905 6.1785
v -108.184 60.4866 5.89036
vn 0.534976 -0.174582 -0.826633
vn 0.227951 -0.972369 -0.0503658
vn -0.30887 0.17394 -0.935064
vn 0.842003 0.538751 0.0279041
vn -0.539475 0.840875 0.0435493
vn -0.308872 0.0764044 0.94803
vn 0.534976 -0.259044 0.804175
vn -0.973671 -0.227651 -0.011791
vn -6.53277e-007 0.0517222 -0.998662
vn 0.467194 -0.702359 -0.537048
vn -0.265892 -0.61776 -0.74005
vn 0.843225 0.223008 -0.48912
vn 0.265892 0.69091 -0.672269
vn 0.926607 -0.375527 -0.0194529
vn 0.376028 0.925368 0.0479283
vn -0.467199 0.754081 -0.461614
vn 0.265891 0.617759 0.740052
vn -0.467199 0.702356 0.537048
vn 0.843226 0.171283 0.509541
vn 0.467194 -0.754085 0.461611
vn -8.14841e-007 -0.0517258 0.998661
vn -0.265893 -0.690911 0.672267
vn -0.376028 -0.925368 -0.0479275
vn -0.843225 -0.171289 -0.509541
vn -0.843225 -0.223014 0.489118
vn -0.92661 0.37552 0.0194478

g grp1
usemtl mtl1
f 1//1 10//10 9//9 
f 10//10 2//2 11//11 
f 11//11 3//3 9//9 
f 10//10 11//11 9//9 
f 1//1 9//9 12//12 
f 9//9 3//3 13//13 
f 13//13 4//4 12//12 
f 9//9 13//13 12//12 
f 1//1 12//12 10//10 
f 12//12 4//4 14//14 
f 14//14 2//2 10//10 
f 12//12 14//14 10//10 
f 4//4 13//13 15//15 
f 13//13 3//3 16//16 
f 16//16 5//5 15//15 
f 13//13 16//16 15//15 
f 4//4 15//15 17//17 
f 15//15 5//5 18//18 
f 18//18 6//6 17//17 
f 15//15 18//18 17//17 
f 4//4 19//19 14//14 
f 19//19 7//7 20//20 
f 20//20 2//2 14//14 
f 19//19 20//20 14//14 
f 4//4 17//17 19//19 
f 17//17 6//6 21//21 
f 21//21 7//7 19//19 
f 17//17 21//21 19//19 
f 7//7 21//21 20//20 
f 21//21 6//6 22//22 
f 22//22 2//2 20//20 
f 21//21 22//22 20//20 
f 2//2 23//23 11//11 
f 23//23 8//8 24//24 
f 24//24 3//3 11//11 
f 23//23 24//24 11//11 
f 2//2 22//22 23//23 
f 22//22 6//6 25//25 
f 25//25 8//8 23//23 
f 22//22 25//25 23//23 
f 3//3 24//24 16//16 
f 24//24 8//8 26//26 
f 26//26 5//5 16//16 
f 24//24 26//26 16//16 
f 5//5 26//26 18//18 
f 26//26 8//8 25//25 
f 25//25 6//6 18//18 
f 26//26 25//25 18//18 
