# wavefront obj file written by the visualization toolkit

mtllib D:/HoloQuickNav/HoloQuickNav_SimultatedStudyData/PT007/Path.mtl

v -0.780373 17.4602 61.5094
v -0.780373 16.1326 62.5148
v -1.60417 16.8695 62.1086
v 0.0434279 16.7233 61.9156
v 11.329 67.195 127.182
v 12.1528 66.4581 127.588
v 11.329 65.8674 128.188
v 10.5052 66.6043 127.782
v -1.19227 17.1648 61.809
v -0.780373 16.7964 62.0121
v -1.19227 16.5011 62.3117
v -0.368473 17.0917 61.7125
v -0.368473 16.428 62.2152
v 5.27431 42.3276 94.3459
v 5.68621 41.9591 94.5489
v 4.86241 42.0322 94.6455
v 6.09811 41.5907 94.752
v 11.7409 66.8265 127.385
v 5.68621 41.2953 95.0516
v 11.7409 66.1628 127.888
v 5.27431 41 95.3512
v 4.86241 41.3685 95.1482
v 10.9171 66.2359 127.985
v 4.45051 41.7369 94.9451
v 10.9171 66.8996 127.482
v 11.329 66.5312 127.685
vn -0.118744 -0.0274381 -0.992546
vn -0.33015 -0.94121 -0.0715884
vn -0.916191 0.0623178 -0.395868
vn 0.884308 -0.281881 -0.372212
vn 0.0484764 0.950703 -0.30629
vn 0.689956 0.437006 0.57705
vn 0.344974 -0.471888 0.811366
vn -0.602634 0.272381 0.750094
vn -0.597519 0.0201383 -0.801602
vn -0.14543 -0.597306 -0.788718
vn -0.597519 -0.777056 -0.197878
vn 0.391849 -0.0676622 -0.917538
vn 0.39185 -0.864855 -0.313815
vn 7.02447e-007 0.797194 -0.603724
vn 0.699589 0.501617 -0.508877
vn -0.699589 0.625785 -0.344917
vn 0.989368 -0.0878007 -0.115937
vn 0.597519 0.777056 0.197878
vn 0.699589 -0.625785 0.344917
vn 0.597515 -0.0201415 0.801605
vn 7.86742e-007 -0.797194 0.603724
vn -0.699589 -0.501618 0.508877
vn -0.39185 0.067655 0.917538
vn -0.989368 0.0877994 0.115937
vn -0.391851 0.864854 0.313816
vn 0.145428 0.597302 0.788721

g grp1
usemtl mtl1
f 1//1 10//10 9//9 
f 10//10 2//2 11//11 
f 11//11 3//3 9//9 
f 10//10 11//11 9//9 
f 1//1 12//12 10//10 
f 12//12 4//4 13//13 
f 13//13 2//2 10//10 
f 12//12 13//13 10//10 
f 1//1 14//14 12//12 
f 14//14 5//5 15//15 
f 15//15 4//4 12//12 
f 14//14 15//15 12//12 
f 1//1 9//9 14//14 
f 9//9 3//3 16//16 
f 16//16 5//5 14//14 
f 9//9 16//16 14//14 
f 4//4 15//15 17//17 
f 15//15 5//5 18//18 
f 18//18 6//6 17//17 
f 15//15 18//18 17//17 
f 4//4 17//17 19//19 
f 17//17 6//6 20//20 
f 20//20 7//7 19//19 
f 17//17 20//20 19//19 
f 4//4 19//19 13//13 
f 19//19 7//7 21//21 
f 21//21 2//2 13//13 
f 19//19 21//21 13//13 
f 2//2 21//21 22//22 
f 21//21 7//7 23//23 
f 23//23 8//8 22//22 
f 21//21 23//23 22//22 
f 2//2 22//22 11//11 
f 22//22 8//8 24//24 
f 24//24 3//3 11//11 
f 22//22 24//24 11//11 
f 3//3 24//24 16//16 
f 24//24 8//8 25//25 
f 25//25 5//5 16//16 
f 24//24 25//25 16//16 
f 5//5 25//25 18//18 
f 25//25 8//8 26//26 
f 26//26 6//6 18//18 
f 25//25 26//26 18//18 
f 6//6 26//26 20//20 
f 26//26 8//8 23//23 
f 23//23 7//7 20//20 
f 26//26 23//23 20//20 
